# xmcd CD database file
# Generated: Mon Feb 24 09:38:07 2003 by KSCD
# 
# Track frame offsets:
#       150
#       19371
#       34918
#       65725
#       80405
#       95957
#       110041
#       122557
#       145817
#       167047
#       180701
#       202443
#
# Disc length: 2935 seconds
#
# Revision: 3
# Processed by: cddbd v1.4PL0 Copyright (c) Steve Scherf et al.
# Submitted via: Kscd 1.3.3
#
DISCID=ba0b750c
DTITLE=SCHAU PAU - Whiskey and Wimmen'
DYEAR=1900
DGENRE=
TTITLE0=Boom Boom
TTITLE1=Dust My Broom
TTITLE2=Whiskey And Wimmen'
TTITLE3=Driften Driften
TTITLE4=Catfish Blues
TTITLE5=Worried Life Blues
TTITLE6=I Gonna Miss You
TTITLE7=Alabama Blues
TTITLE8=Bootle Up And Go
TTITLE9=Rollin' And Tumblin'
TTITLE10=Come On In My Kitchen
TTITLE11=Rock Me Babe
EXTD=Acoustic Blues
EXTT0=
EXTT1=
EXTT2=
EXTT3=
EXTT4=
EXTT5=
EXTT6=
EXTT7=
EXTT8=
EXTT9=
EXTT10=
EXTT11=
PLAYORDER=
